<svg xmlns="http://www.w3.org/2000/svg" width="30" height="30" viewBox="0 0 30 30">
  <g id="그룹_48478" data-name="그룹 48478" transform="translate(-226.19 -902)">
    <path id="패스_2440" data-name="패스 2440" d="M0,20.5V9.5a1.355,1.355,0,0,0,.059-.238Q.1,8.724.12,8.18A9.647,9.647,0,0,1,.741,5.232a7.5,7.5,0,0,1,2.5-3.364A8.56,8.56,0,0,1,7.765.192C8.8.089,9.85.1,10.894.063c.366-.012.734,0,1.1,0A1.357,1.357,0,0,0,12.262,0h5.476a.649.649,0,0,0,.179.059c1,.023,1.995.025,2.991.068.673.029,1.346.1,2.015.175a7.856,7.856,0,0,1,2.677.841,7.442,7.442,0,0,1,2.339,1.869,7.9,7.9,0,0,1,1.348,2.333,11.648,11.648,0,0,1,.655,4.042A2.237,2.237,0,0,0,30,9.743V20.317c-.02.04-.056.078-.058.119-.024.441-.028.884-.066,1.324a11.663,11.663,0,0,1-.189,1.594,7.828,7.828,0,0,1-5.145,5.989,12.316,12.316,0,0,1-4.064.6,2.162,2.162,0,0,0-.357.059H9.881a.767.767,0,0,0-.179-.059c-.841-.062-1.684-.1-2.522-.186a7.933,7.933,0,0,1-2.531-.736A7.676,7.676,0,0,1,2.1,27.092,7.294,7.294,0,0,1,.846,25.068a10.955,10.955,0,0,1-.787-4.306A1.229,1.229,0,0,0,0,20.5m20.034,6.774,0-.028c.626-.05,1.252-.1,1.879-.149a6.2,6.2,0,0,0,2.579-.764,4.837,4.837,0,0,0,1.987-2.1,6.918,6.918,0,0,0,.655-2.549c.075-.87.122-1.746.121-2.62,0-2.936-.036-5.873-.052-8.809A15.484,15.484,0,0,0,26.971,7.3a5.355,5.355,0,0,0-1.43-2.812,5.3,5.3,0,0,0-2.451-1.348,13.6,13.6,0,0,0-3.469-.338c-3.259-.025-6.519.03-9.778.04a12.668,12.668,0,0,0-2.689.244A5.115,5.115,0,0,0,3.9,5.15a6.183,6.183,0,0,0-1.038,3.14c-.091,1.157-.105,2.32-.126,3.481-.02,1.079-.017,2.158,0,3.237q.046,3.2.119,6.392a6.946,6.946,0,0,0,.584,2.657,4.891,4.891,0,0,0,2.3,2.413,6.683,6.683,0,0,0,2.608.672c.952.073,1.908.117,2.863.121,2.942.015,5.884.006,8.826.006" transform="translate(226.19 902)" fill="#fff"/>
    <path id="패스_2441" data-name="패스 2441" d="M122.032,130.67a7.719,7.719,0,1,1,7.595,7.674,7.677,7.677,0,0,1-7.595-7.674m12.657-.011a4.952,4.952,0,1,0-5.222,4.924,4.912,4.912,0,0,0,5.222-4.924" transform="translate(111.435 786.364)" fill="#fff" fill-rule="evenodd"/>
    <path id="패스_2442" data-name="패스 2442" d="M355.883,89.485a1.816,1.816,0,0,1,1.888-1.834,1.834,1.834,0,0,1-.118,3.665,1.81,1.81,0,0,1-1.77-1.831" transform="translate(-108.506 819.555)" fill="#fff" fill-rule="evenodd"/>
  </g>
</svg>
